<?xml version="1.0" encoding="UTF-8" standalone="no"?>
<svg
   xmlns:dc="http://purl.org/dc/elements/1.1/"
   xmlns:cc="http://creativecommons.org/ns#"
   xmlns:rdf="http://www.w3.org/1999/02/22-rdf-syntax-ns#"
   xmlns:svg="http://www.w3.org/2000/svg"
   xmlns="http://www.w3.org/2000/svg"
   xmlns:sodipodi="http://sodipodi.sourceforge.net/DTD/sodipodi-0.dtd"
   xmlns:inkscape="http://www.inkscape.org/namespaces/inkscape"
   sodipodi:docname="logo.svg"
   inkscape:version="1.0 (4035a4fb49, 2020-05-01)"
   id="svg8"
   version="1.1"
   viewBox="0 0 23.909199 13.890021"
   height="13.890021mm"
   width="23.909199mm">
  <defs
     id="defs2" />
  <sodipodi:namedview
     inkscape:window-maximized="1"
     inkscape:window-y="348"
     inkscape:window-x="1911"
     inkscape:window-height="1017"
     inkscape:window-width="1920"
     inkscape:snap-page="true"
     inkscape:showpageshadow="false"
     borderlayer="true"
     showborder="true"
     inkscape:pagecheckerboard="false"
     showgrid="false"
     inkscape:document-rotation="0"
     inkscape:current-layer="text884-7"
     inkscape:document-units="mm"
     inkscape:cy="40.805486"
     inkscape:cx="72.451198"
     inkscape:zoom="5.6"
     inkscape:pageshadow="2"
     inkscape:pageopacity="0"
     borderopacity="1"
     bordercolor="#000000"
     pagecolor="#3d3d3d"
     id="base" />
  <metadata
     id="metadata5">
    <rdf:RDF>
      <cc:Work
         rdf:about="">
        <dc:format>image/svg+xml</dc:format>
        <dc:type
           rdf:resource="http://purl.org/dc/dcmitype/StillImage" />
        <dc:title></dc:title>
      </cc:Work>
    </rdf:RDF>
  </metadata>
  <g
     transform="translate(-93.045398,-141.55499)"
     inkscape:label="Layer 1"
     id="layer2"
     inkscape:groupmode="layer">
    <g
       style="font-style:normal;font-variant:normal;font-weight:bold;font-stretch:normal;font-size:12.8266px;line-height:1.25;font-family:'Neutra Text';-inkscape-font-specification:'Neutra Text, Bold';font-variant-ligatures:normal;font-variant-caps:normal;font-variant-numeric:normal;font-variant-east-asian:normal;fill:#2e2e2c;fill-opacity:1;stroke:#f8dc3d;stroke-width:2.5;stroke-linecap:round;stroke-linejoin:round;stroke-miterlimit:4;stroke-dasharray:none;stroke-opacity:1;paint-order:stroke fill markers"
       id="text884-7"
       aria-label="upjs">
      <path
         id="path1503"
         style="font-style:normal;font-variant:normal;font-weight:bold;font-stretch:normal;font-size:12.8266px;font-family:'Neutra Text';-inkscape-font-specification:'Neutra Text, Bold';font-variant-ligatures:normal;font-variant-caps:normal;font-variant-numeric:normal;font-variant-east-asian:normal;fill:#2e2e2c;fill-opacity:1;stroke:#f8dc3d;stroke-width:2.5;stroke-linecap:round;stroke-linejoin:round;stroke-miterlimit:4;stroke-dasharray:none;stroke-opacity:1;paint-order:stroke fill markers"
         d="m 96.334827,151.46294 c 0.75677,0 1.385273,-0.35914 1.718765,-1.0133 l -0.03848,0.89786 h 1.731591 v -5.46413 h -1.731591 v 2.92447 c 0,0.69263 -0.384798,1.09026 -1.077434,1.09026 -0.615677,0 -0.910689,-0.35915 -0.910689,-0.97482 v -3.03991 h -1.731591 v 3.15535 c 0,1.55201 0.846556,2.42422 2.039429,2.42422 z" />
      <path
         id="path1505"
         style="font-style:normal;font-variant:normal;font-weight:bold;font-stretch:normal;font-size:12.8266px;font-family:'Neutra Text';-inkscape-font-specification:'Neutra Text, Bold';font-variant-ligatures:normal;font-variant-caps:normal;font-variant-numeric:normal;font-variant-east-asian:normal;fill:#2e2e2c;fill-opacity:1;stroke:#f8dc3d;stroke-width:2.5;stroke-linecap:round;stroke-linejoin:round;stroke-miterlimit:4;stroke-dasharray:none;stroke-opacity:1;paint-order:stroke fill markers"
         d="m 101.09791,154.06674 h 1.73159 v -3.45035 c 0.28218,0.50023 0.84655,0.84655 1.68028,0.84655 1.33397,0 2.47553,-1.18004 2.47553,-2.86033 0,-1.68028 -1.11591,-2.83468 -2.43705,-2.83468 -0.84655,0 -1.42375,0.37197 -1.75724,0.962 l 0.0385,-0.84656 h -1.73159 z m 2.91163,-4.11734 c -0.74394,0 -1.23135,-0.48741 -1.23135,-1.34679 0,-0.80807 0.48741,-1.30831 1.23135,-1.30831 0.73112,0 1.19288,0.50024 1.19288,1.30831 0,0.85938 -0.46176,1.34679 -1.19288,1.34679 z" />
      <g
         style="opacity:1"
         id="g1548">
        <path
           id="path1550"
           d="M 113.39648 144.51758 C 112.6343 144.51758 111.84618 144.66551 111.16406 145.16211 C 110.48195 145.65871 110.0293 146.56314 110.0293 147.5 C 110.0293 148.11807 110.2632 148.65515 110.56641 149.11328 L 110.14258 149.48828 A 1.250125 1.250125 0 0 0 110.01562 151.22852 C 110.68219 152.02118 111.87771 152.71289 113.45898 152.71289 C 114.51737 152.71289 115.44264 152.44927 116.08984 151.83203 C 116.73705 151.21479 116.95508 150.35988 116.95508 149.64062 C 116.95508 148.81934 116.53724 148.11896 116.04297 147.65039 L 116.29688 147.37891 A 1.250125 1.250125 0 0 0 116.2793 145.6543 C 115.60109 144.95671 114.56815 144.51758 113.39648 144.51758 z "
           style="color:#000000;font-style:normal;font-variant:normal;font-weight:bold;font-stretch:normal;font-size:12.8266px;line-height:1.25;font-family:'Neutra Text';-inkscape-font-specification:'Neutra Text, Bold';font-variant-ligatures:normal;font-variant-position:normal;font-variant-caps:normal;font-variant-numeric:normal;font-variant-alternates:normal;font-variant-east-asian:normal;font-feature-settings:normal;font-variation-settings:normal;text-indent:0;text-align:start;text-decoration:none;text-decoration-line:none;text-decoration-style:solid;text-decoration-color:#000000;letter-spacing:normal;word-spacing:normal;text-transform:none;writing-mode:lr-tb;direction:ltr;text-orientation:mixed;dominant-baseline:auto;baseline-shift:baseline;text-anchor:start;white-space:normal;shape-padding:0;shape-margin:0;inline-size:0;clip-rule:nonzero;display:inline;overflow:visible;visibility:visible;isolation:auto;mix-blend-mode:normal;color-interpolation:sRGB;color-interpolation-filters:linearRGB;solid-color:#000000;solid-opacity:1;vector-effect:none;fill:#f8dc3d;fill-opacity:1;fill-rule:nonzero;stroke:none;stroke-width:2.5;stroke-linecap:round;stroke-linejoin:round;stroke-miterlimit:4;stroke-dasharray:none;stroke-dashoffset:0;stroke-opacity:1.0;paint-order:stroke fill markers;color-rendering:auto;image-rendering:auto;shape-rendering:auto;text-rendering:auto;enable-background:accumulate;stop-color:#000000;stop-opacity:1;" />
      </g>
      <path
         id="path1507"
         style="font-style:normal;font-variant:normal;font-weight:bold;font-stretch:normal;font-size:12.8266px;font-family:'Neutra Text';-inkscape-font-specification:'Neutra Text, Bold';font-variant-ligatures:normal;font-variant-caps:normal;font-variant-numeric:normal;font-variant-east-asian:normal;fill:#2e2e2c;fill-opacity:1;stroke:#f8dc3d;stroke-width:2.5;stroke-linecap:round;stroke-linejoin:round;stroke-miterlimit:4;stroke-dasharray:none;stroke-opacity:1;paint-order:stroke fill markers"
         d="m 109.0989,144.97268 c 0.59002,0 1.09026,-0.44893 1.09026,-1.09026 0,-0.6285 -0.50024,-1.07743 -1.09026,-1.07743 -0.59003,0 -1.10309,0.44893 -1.10309,1.07743 0,0.64133 0.51306,1.09026 1.10309,1.09026 z m -1.10309,9.22233 c 1.28266,0 1.96247,-0.71829 1.96247,-1.9753 v -6.33634 h -1.73159 v 6.40048 c 0,0.28218 -0.12827,0.4361 -0.39763,0.4361 -0.14109,0 -0.28218,-0.077 -0.42327,-0.20523 l -0.85939,1.02613 c 0.25654,0.32067 0.80808,0.65416 1.44941,0.65416 z" />
      <path
         style="color:#000000;font-style:normal;font-variant:normal;font-weight:bold;font-stretch:normal;font-size:12.8266px;line-height:1.25;font-family:'Neutra Text';-inkscape-font-specification:'Neutra Text, Bold';font-variant-ligatures:normal;font-variant-position:normal;font-variant-caps:normal;font-variant-numeric:normal;font-variant-alternates:normal;font-variant-east-asian:normal;font-feature-settings:normal;font-variation-settings:normal;text-indent:0;text-align:start;text-decoration:none;text-decoration-line:none;text-decoration-style:solid;text-decoration-color:#000000;letter-spacing:normal;word-spacing:normal;text-transform:none;writing-mode:lr-tb;direction:ltr;text-orientation:mixed;dominant-baseline:auto;baseline-shift:baseline;text-anchor:start;white-space:normal;shape-padding:0;shape-margin:0;inline-size:0;clip-rule:nonzero;display:inline;overflow:visible;visibility:visible;opacity:1;isolation:auto;mix-blend-mode:normal;color-interpolation:sRGB;color-interpolation-filters:linearRGB;solid-color:#000000;solid-opacity:1;vector-effect:none;fill:#2e2e2c;fill-opacity:1;fill-rule:nonzero;stroke:none;stroke-width:2.5;stroke-linecap:round;stroke-linejoin:round;stroke-miterlimit:4;stroke-dasharray:none;stroke-dashoffset:0;stroke-opacity:1;paint-order:stroke fill markers;color-rendering:auto;image-rendering:auto;shape-rendering:auto;text-rendering:auto;enable-background:accumulate;stop-color:#000000;stop-opacity:1"
         d="m 113.45994,151.46294 c 1.71877,0 2.24466,-0.8209 2.24466,-1.82137 0,-1.1544 -1.00048,-1.52637 -1.79573,-1.70594 -0.74394,-0.16675 -1.09026,-0.20523 -1.09026,-0.51307 0,-0.21805 0.1924,-0.32066 0.59003,-0.32066 0.41045,0 0.79524,0.1924 1.05178,0.41045 l 0.92351,-0.98765 c -0.44893,-0.46176 -1.09026,-0.75677 -1.98812,-0.75677 -1.16722,0 -2.11639,0.50024 -2.11639,1.73159 0,1.14157 0.83373,1.55202 1.57767,1.74442 0.88504,0.23088 1.23135,0.23088 1.23135,0.52589 0,0.23088 -0.17957,0.33349 -0.74394,0.33349 -0.51306,0 -0.98765,-0.21805 -1.35962,-0.57719 l -1.0133,0.89786 c 0.47459,0.56437 1.21853,1.03895 2.48836,1.03895 z"
         id="path1552" />
    </g>
  </g>
</svg>
